<svg xmlns="http://www.w3.org/2000/svg" viewBox="0 0 320 80" fill="none">
  <!-- Emblem Mark (Left side) -->
  <g transform="translate(8, 4) scale(0.24)">
    <!-- Yellow / Orange Disc Background -->
    <circle cx="150" cy="170" r="105" fill="#FFA000"/>

    <!-- Toga / Graduation Hat Top -->
    <path d="M150 35L240 70L150 105L60 70Z" fill="#60A5FA"/>
    <!-- Cap Headband -->
    <path d="M102 87v16c0 14 22 24 48 24s48-10 48-24V87" fill="#3B82F6"/>
    <!-- Cap Tassel -->
    <path d="M232 75v32" stroke="#60A5FA" stroke-width="4" stroke-linecap="round"/>
    <circle cx="232" cy="110" r="4.5" fill="#60A5FA"/>

    <!-- Graduate Head -->
    <circle cx="150" cy="132" r="32" fill="#60A5FA"/>

    <!-- Dynamic Graduate Body / Swoosh -->
    <path d="M85 95C72 135 78 185 150 280C140 230 148 185 185 152C160 170 140 170 125 150C108 130 98 105 85 95Z" fill="#60A5FA"/>
    
    <!-- Right Arm & Wings -->
    <path d="M150 178C185 145 220 120 242 122C218 152 195 188 178 275C170 230 185 195 208 170C185 180 165 178 150 178Z" fill="#60A5FA"/>
    <path d="M185 270C205 210 232 170 248 162C236 192 220 235 208 270Z" fill="#60A5FA"/>
  </g>

  <!-- Typography Right Side (White & Amber) -->
  <text x="88" y="40" font-family="system-ui, -apple-system, BlinkMacSystemFont, 'Segoe UI', Roboto, sans-serif" font-size="22" font-weight="900" fill="#FFFFFF" letter-spacing="0.5">
    BINCANG EDUKASI
  </text>
  
  <text x="90" y="62" font-family="Georgia, Cambria, 'Times New Roman', serif" font-size="16" font-style="italic" font-weight="600" fill="#FBBF24">
    Siap Hadapi Ujian
  </text>
</svg>
